<svg xmlns="http://www.w3.org/2000/svg" viewBox="0 0 310 270" fill="none">
  <!-- Icon background -->
  <rect x="5" y="5" width="190" height="190" rx="38" fill="#0F2318"/>

  <defs>
    <clipPath id="lh">
      <rect x="0" y="0" width="100" height="200"/>
    </clipPath>
  </defs>

  <!-- Left half: white mask shape -->
  <g clip-path="url(#lh)">
    <path
      d="M100 65 C122 61 148 63 162 72 C172 78 178 88 175 98
         C171 111 158 118 142 120 C130 123 116 127 100 127
         C84 127 70 123 58 120 C42 118 29 111 25 98
         C22 88 28 78 38 72 C52 63 78 61 100 65 Z"
      fill="#FFFFFF"/>
    <ellipse cx="68" cy="95" rx="21" ry="13" fill="#0F2318"/>
  </g>

  <!-- Right half: pixel grid inside icon -->
  <rect x="101" y="64" width="9" height="9" fill="#3DDB81"/>
  <rect x="112" y="64" width="9" height="9" fill="#3DDB81"/>
  <rect x="123" y="64" width="9" height="9" fill="#3DDB81"/>
  <rect x="134" y="64" width="9" height="9" fill="#3DDB81"/>
  <rect x="145" y="64" width="9" height="9" fill="#3DDB81"/>
  <rect x="101" y="75" width="9" height="9" fill="#3DDB81"/>
  <rect x="112" y="75" width="9" height="9" fill="#3DDB81"/>
  <rect x="123" y="75" width="9" height="9" fill="#3DDB81"/>
  <rect x="134" y="75" width="9" height="9" fill="#3DDB81"/>
  <rect x="145" y="75" width="9" height="9" fill="#3DDB81"/>
  <rect x="156" y="75" width="9" height="9" fill="#3DDB81"/>
  <rect x="101" y="86" width="9" height="9" fill="#3DDB81"/>
  <rect x="156" y="86" width="9" height="9" fill="#3DDB81"/>
  <rect x="167" y="86" width="9" height="9" fill="#3DDB81"/>
  <rect x="101" y="97" width="9" height="9" fill="#3DDB81"/>
  <rect x="156" y="97" width="9" height="9" fill="#3DDB81"/>
  <rect x="167" y="97" width="9" height="9" fill="#3DDB81"/>
  <rect x="101" y="108" width="9" height="9" fill="#3DDB81"/>
  <rect x="112" y="108" width="9" height="9" fill="#3DDB81"/>
  <rect x="123" y="108" width="9" height="9" fill="#3DDB81"/>
  <rect x="134" y="108" width="9" height="9" fill="#3DDB81"/>
  <rect x="145" y="108" width="9" height="9" fill="#3DDB81"/>
  <rect x="156" y="108" width="9" height="9" fill="#3DDB81"/>
  <rect x="101" y="119" width="9" height="9" fill="#3DDB81"/>
  <rect x="112" y="119" width="9" height="9" fill="#3DDB81"/>
  <rect x="123" y="119" width="9" height="9" fill="#3DDB81"/>
  <rect x="134" y="119" width="9" height="9" fill="#3DDB81"/>
  <rect x="145" y="119" width="9" height="9" fill="#3DDB81"/>
  <rect x="101" y="130" width="9" height="9" fill="#3DDB81"/>
  <rect x="112" y="130" width="9" height="9" fill="#3DDB81"/>
  <rect x="123" y="130" width="9" height="9" fill="#3DDB81"/>

  <!-- Dispersion pixels (cascade outside icon to the right) -->
  <rect x="198" y="72" width="8" height="8" fill="#3DDB81"/>
  <rect x="208" y="84" width="8" height="8" fill="#3DDB81"/>
  <rect x="218" y="65" width="7" height="7" fill="#3DDB81"/>
  <rect x="220" y="95" width="7" height="7" fill="#3DDB81"/>
  <rect x="230" y="76" width="6" height="6" fill="#3DDB81"/>
  <rect x="234" y="108" width="6" height="6" fill="#3DDB81"/>
  <rect x="242" y="87" width="5" height="5" fill="#3DDB81"/>
  <rect x="245" y="70" width="5" height="5" fill="#3DDB81"/>
  <rect x="251" y="99" width="4" height="4" fill="#3DDB81"/>
  <rect x="256" y="82" width="4" height="4" fill="#3DDB81"/>
  <rect x="260" y="114" width="4" height="4" fill="#3DDB81"/>
  <rect x="264" y="90" width="3" height="3" fill="#3DDB81"/>
  <rect x="268" y="76" width="3" height="3" fill="#3DDB81"/>
  <rect x="271" y="103" width="3" height="3" fill="#3DDB81"/>
  <rect x="275" y="86" width="2" height="2" fill="#3DDB81"/>
  <rect x="278" y="96" width="2" height="2" fill="#3DDB81"/>

  <!-- Wordmark: "Mask" white + "Ops" green -->
  <text
    font-family="Space Grotesk, system-ui, -apple-system, sans-serif"
    font-weight="700"
    font-size="58"
    y="248">
    <tspan x="4" fill="#FFFFFF">Mask</tspan><tspan fill="#3DDB81">Ops</tspan>
  </text>
</svg>
